<svg width="104" height="101" xmlns="http://www.w3.org/2000/svg" xmlns:xlink="http://www.w3.org/1999/xlink" overflow="hidden"><defs><clipPath id="clip0"><rect x="775" y="563" width="104" height="101"/></clipPath><clipPath id="clip1"><rect x="776" y="564" width="103" height="100"/></clipPath><clipPath id="clip2"><rect x="776" y="564" width="103" height="100"/></clipPath></defs><g clip-path="url(#clip0)" transform="translate(-775 -563)"><g clip-path="url(#clip1)"><g clip-path="url(#clip2)"><path d="M62.9631 106.899 81.528 88.6486 100.091 106.899 107.236 99.6344 88.793 81.5042 107.236 63.3741 100.091 56.1091 81.528 74.3598 62.9631 56.1091 55.8204 63.3741 74.2613 81.5042 55.8204 99.6344 62.9631 106.899Z" fill="#ED7D31" transform="matrix(1 0 0 1.00063 746.725 531.563)"/><path d="M35.6626 35.6626 35.6626 127.366 127.366 127.366 127.366 35.6626ZM117.177 117.177 45.8519 117.177 45.8519 45.8519 117.177 45.8519Z" fill="#ED7D31" transform="matrix(1 0 0 1.00063 746.725 531.563)"/></g></g></g></svg>